<mxfile host="app.diagrams.net" agent="Mozilla/5.0 (X11; Linux x86_64) AppleWebKit/537.36 (KHTML, like Gecko) Chrome/129.0.0.0 Safari/537.36" version="25.0.3">
  <diagram name="Page-1" id="1ZEIVNA6-t55D6LNcMnF">
    <mxGraphModel dx="1194" dy="1224" grid="0" gridSize="10" guides="1" tooltips="1" connect="1" arrows="1" fold="1" page="0" pageScale="1" pageWidth="827" pageHeight="1169" math="0" shadow="0">
      <root>
        <mxCell id="0" />
        <mxCell id="1" parent="0" />
        <mxCell id="PXHfvhvfslaa210yV5xj-107" value="" style="rounded=0;whiteSpace=wrap;html=1;" vertex="1" parent="1">
          <mxGeometry x="-271.5" y="-154" width="1288.5" height="788" as="geometry" />
        </mxCell>
        <mxCell id="PXHfvhvfslaa210yV5xj-11" style="edgeStyle=orthogonalEdgeStyle;rounded=0;orthogonalLoop=1;jettySize=auto;html=1;" edge="1" parent="1" source="PXHfvhvfslaa210yV5xj-1" target="PXHfvhvfslaa210yV5xj-8">
          <mxGeometry relative="1" as="geometry" />
        </mxCell>
        <mxCell id="PXHfvhvfslaa210yV5xj-25" style="edgeStyle=orthogonalEdgeStyle;rounded=0;orthogonalLoop=1;jettySize=auto;html=1;entryX=0.5;entryY=0;entryDx=0;entryDy=0;" edge="1" parent="1" source="PXHfvhvfslaa210yV5xj-1" target="PXHfvhvfslaa210yV5xj-24">
          <mxGeometry relative="1" as="geometry">
            <Array as="points">
              <mxPoint x="-175" y="79" />
            </Array>
          </mxGeometry>
        </mxCell>
        <mxCell id="PXHfvhvfslaa210yV5xj-1" value="&lt;b&gt;&lt;font face=&quot;Helvetica&quot; style=&quot;font-size: 24px;&quot;&gt;LLaVA&lt;/font&gt;&lt;/b&gt;" style="rounded=0;whiteSpace=wrap;html=1;" vertex="1" parent="1">
          <mxGeometry x="-148" y="48.5" width="120" height="60" as="geometry" />
        </mxCell>
        <mxCell id="PXHfvhvfslaa210yV5xj-13" style="edgeStyle=orthogonalEdgeStyle;rounded=0;orthogonalLoop=1;jettySize=auto;html=1;entryX=0.5;entryY=0;entryDx=0;entryDy=0;" edge="1" parent="1" source="PXHfvhvfslaa210yV5xj-2" target="PXHfvhvfslaa210yV5xj-12">
          <mxGeometry relative="1" as="geometry" />
        </mxCell>
        <mxCell id="PXHfvhvfslaa210yV5xj-58" style="edgeStyle=orthogonalEdgeStyle;rounded=0;orthogonalLoop=1;jettySize=auto;html=1;entryX=0.5;entryY=0;entryDx=0;entryDy=0;" edge="1" parent="1" source="PXHfvhvfslaa210yV5xj-2" target="PXHfvhvfslaa210yV5xj-52">
          <mxGeometry relative="1" as="geometry">
            <Array as="points">
              <mxPoint x="508" y="79" />
            </Array>
          </mxGeometry>
        </mxCell>
        <mxCell id="PXHfvhvfslaa210yV5xj-2" value="&lt;font style=&quot;font-size: 24px;&quot;&gt;&lt;b&gt;Interface&lt;/b&gt;&lt;/font&gt;" style="rounded=0;whiteSpace=wrap;html=1;" vertex="1" parent="1">
          <mxGeometry x="532" y="48.5" width="120" height="60" as="geometry" />
        </mxCell>
        <mxCell id="PXHfvhvfslaa210yV5xj-10" style="edgeStyle=orthogonalEdgeStyle;rounded=0;orthogonalLoop=1;jettySize=auto;html=1;" edge="1" parent="1" source="PXHfvhvfslaa210yV5xj-3" target="PXHfvhvfslaa210yV5xj-9">
          <mxGeometry relative="1" as="geometry" />
        </mxCell>
        <mxCell id="PXHfvhvfslaa210yV5xj-47" style="edgeStyle=orthogonalEdgeStyle;rounded=0;orthogonalLoop=1;jettySize=auto;html=1;entryX=0.5;entryY=0;entryDx=0;entryDy=0;" edge="1" parent="1" source="PXHfvhvfslaa210yV5xj-3" target="PXHfvhvfslaa210yV5xj-42">
          <mxGeometry relative="1" as="geometry">
            <Array as="points">
              <mxPoint x="168" y="79" />
            </Array>
          </mxGeometry>
        </mxCell>
        <mxCell id="PXHfvhvfslaa210yV5xj-3" value="&lt;font style=&quot;font-size: 24px;&quot;&gt;&lt;b&gt;Backend&lt;/b&gt;&lt;/font&gt;" style="rounded=0;whiteSpace=wrap;html=1;" vertex="1" parent="1">
          <mxGeometry x="192" y="48.5" width="120" height="60" as="geometry" />
        </mxCell>
        <mxCell id="PXHfvhvfslaa210yV5xj-5" style="edgeStyle=orthogonalEdgeStyle;rounded=0;orthogonalLoop=1;jettySize=auto;html=1;entryX=0.5;entryY=0;entryDx=0;entryDy=0;" edge="1" parent="1" source="PXHfvhvfslaa210yV5xj-4" target="PXHfvhvfslaa210yV5xj-1">
          <mxGeometry relative="1" as="geometry" />
        </mxCell>
        <mxCell id="PXHfvhvfslaa210yV5xj-6" style="edgeStyle=orthogonalEdgeStyle;rounded=0;orthogonalLoop=1;jettySize=auto;html=1;entryX=0.5;entryY=0;entryDx=0;entryDy=0;" edge="1" parent="1" source="PXHfvhvfslaa210yV5xj-4" target="PXHfvhvfslaa210yV5xj-3">
          <mxGeometry relative="1" as="geometry" />
        </mxCell>
        <mxCell id="PXHfvhvfslaa210yV5xj-7" style="edgeStyle=orthogonalEdgeStyle;rounded=0;orthogonalLoop=1;jettySize=auto;html=1;" edge="1" parent="1" source="PXHfvhvfslaa210yV5xj-4" target="PXHfvhvfslaa210yV5xj-2">
          <mxGeometry relative="1" as="geometry" />
        </mxCell>
        <mxCell id="PXHfvhvfslaa210yV5xj-4" value="&lt;i&gt;&lt;b&gt;docker-compose.yml&lt;/b&gt;&lt;/i&gt;" style="whiteSpace=wrap;html=1;aspect=fixed;fillColor=#FFFFFF;" vertex="1" parent="1">
          <mxGeometry x="189" y="-132" width="126" height="126" as="geometry" />
        </mxCell>
        <mxCell id="PXHfvhvfslaa210yV5xj-8" value="&lt;div style=&quot;background-color:#1e1f22;color:#bcbec4&quot;&gt;&lt;pre style=&quot;font-family: &amp;quot;JetBrains Mono&amp;quot;, monospace;&quot;&gt;&lt;span style=&quot;color: rgb(106, 171, 115);&quot;&gt;&lt;font style=&quot;font-size: 24px;&quot;&gt;11434&lt;/font&gt;&lt;/span&gt;&lt;/pre&gt;&lt;/div&gt;" style="rounded=1;whiteSpace=wrap;html=1;fillColor=#FFFFCC;" vertex="1" parent="1">
          <mxGeometry x="-148" y="157.5" width="120" height="60" as="geometry" />
        </mxCell>
        <mxCell id="PXHfvhvfslaa210yV5xj-9" value="&lt;div style=&quot;background-color:#1e1f22;color:#bcbec4&quot;&gt;&lt;pre style=&quot;font-family: &amp;quot;JetBrains Mono&amp;quot;, monospace;&quot;&gt;&lt;span style=&quot;color: rgb(106, 171, 115);&quot;&gt;&lt;font style=&quot;font-size: 24px;&quot;&gt;8000&lt;/font&gt;&lt;/span&gt;&lt;/pre&gt;&lt;/div&gt;" style="rounded=1;whiteSpace=wrap;html=1;fillColor=#FFFFCC;" vertex="1" parent="1">
          <mxGeometry x="192" y="155" width="120" height="60" as="geometry" />
        </mxCell>
        <mxCell id="PXHfvhvfslaa210yV5xj-12" value="&lt;div style=&quot;background-color:#1e1f22;color:#bcbec4&quot;&gt;&lt;pre style=&quot;font-family: &amp;quot;JetBrains Mono&amp;quot;, monospace;&quot;&gt;&lt;span style=&quot;color: rgb(106, 171, 115);&quot;&gt;&lt;font style=&quot;font-size: 24px;&quot;&gt;8501&lt;/font&gt;&lt;/span&gt;&lt;/pre&gt;&lt;/div&gt;" style="rounded=1;whiteSpace=wrap;html=1;fillColor=#FFFFCC;" vertex="1" parent="1">
          <mxGeometry x="532" y="157.5" width="120" height="60" as="geometry" />
        </mxCell>
        <mxCell id="PXHfvhvfslaa210yV5xj-31" style="edgeStyle=orthogonalEdgeStyle;rounded=0;orthogonalLoop=1;jettySize=auto;html=1;entryX=0;entryY=0.5;entryDx=0;entryDy=0;" edge="1" parent="1" source="PXHfvhvfslaa210yV5xj-24" target="PXHfvhvfslaa210yV5xj-28">
          <mxGeometry relative="1" as="geometry" />
        </mxCell>
        <mxCell id="PXHfvhvfslaa210yV5xj-35" style="edgeStyle=orthogonalEdgeStyle;rounded=0;orthogonalLoop=1;jettySize=auto;html=1;entryX=0;entryY=0.5;entryDx=0;entryDy=0;" edge="1" parent="1" source="PXHfvhvfslaa210yV5xj-24" target="PXHfvhvfslaa210yV5xj-29">
          <mxGeometry relative="1" as="geometry" />
        </mxCell>
        <mxCell id="PXHfvhvfslaa210yV5xj-36" style="edgeStyle=orthogonalEdgeStyle;rounded=0;orthogonalLoop=1;jettySize=auto;html=1;entryX=0;entryY=0.5;entryDx=0;entryDy=0;" edge="1" parent="1" source="PXHfvhvfslaa210yV5xj-24" target="PXHfvhvfslaa210yV5xj-27">
          <mxGeometry relative="1" as="geometry" />
        </mxCell>
        <mxCell id="PXHfvhvfslaa210yV5xj-37" style="edgeStyle=orthogonalEdgeStyle;rounded=0;orthogonalLoop=1;jettySize=auto;html=1;entryX=0;entryY=0.5;entryDx=0;entryDy=0;" edge="1" parent="1" source="PXHfvhvfslaa210yV5xj-24" target="PXHfvhvfslaa210yV5xj-30">
          <mxGeometry relative="1" as="geometry" />
        </mxCell>
        <mxCell id="PXHfvhvfslaa210yV5xj-77" style="edgeStyle=orthogonalEdgeStyle;rounded=0;orthogonalLoop=1;jettySize=auto;html=1;entryX=0;entryY=0.5;entryDx=0;entryDy=0;" edge="1" parent="1" source="PXHfvhvfslaa210yV5xj-24" target="PXHfvhvfslaa210yV5xj-74">
          <mxGeometry relative="1" as="geometry">
            <mxPoint x="-175" y="549" as="targetPoint" />
            <Array as="points">
              <mxPoint x="-175" y="545" />
            </Array>
          </mxGeometry>
        </mxCell>
        <mxCell id="PXHfvhvfslaa210yV5xj-24" value="&lt;div&gt;&lt;font face=&quot;Helvetica&quot; style=&quot;font-size: 14px;&quot;&gt;&lt;i&gt;llava_model&lt;/i&gt;&lt;/font&gt;&lt;/div&gt;" style="rounded=0;whiteSpace=wrap;html=1;" vertex="1" parent="1">
          <mxGeometry x="-220" y="333" width="90" height="40" as="geometry" />
        </mxCell>
        <mxCell id="PXHfvhvfslaa210yV5xj-27" value="&lt;font face=&quot;Helvetica&quot; style=&quot;font-size: 14px;&quot;&gt;ollama&lt;/font&gt;" style="rounded=0;whiteSpace=wrap;html=1;fillColor=#CCCC00;" vertex="1" parent="1">
          <mxGeometry x="-67" y="261" width="100" height="40" as="geometry" />
        </mxCell>
        <mxCell id="PXHfvhvfslaa210yV5xj-28" value="&lt;font face=&quot;Helvetica&quot; style=&quot;font-size: 14px;&quot;&gt;llava:13b&lt;/font&gt;" style="rounded=0;whiteSpace=wrap;html=1;fillColor=#CCCC00;" vertex="1" parent="1">
          <mxGeometry x="-67" y="309" width="100" height="40" as="geometry" />
        </mxCell>
        <mxCell id="PXHfvhvfslaa210yV5xj-29" value="&lt;font face=&quot;Helvetica&quot; style=&quot;font-size: 14px;&quot;&gt;llava_model&lt;/font&gt;" style="rounded=0;whiteSpace=wrap;html=1;fillColor=#CC6600;" vertex="1" parent="1">
          <mxGeometry x="-67" y="357" width="100" height="40" as="geometry" />
        </mxCell>
        <mxCell id="PXHfvhvfslaa210yV5xj-30" value="&lt;font face=&quot;Helvetica&quot; style=&quot;font-size: 14px;&quot;&gt;llava_network&lt;/font&gt;" style="rounded=0;whiteSpace=wrap;html=1;fillColor=#00CCCC;" vertex="1" parent="1">
          <mxGeometry x="-67" y="405" width="100" height="40" as="geometry" />
        </mxCell>
        <mxCell id="PXHfvhvfslaa210yV5xj-38" style="edgeStyle=orthogonalEdgeStyle;rounded=0;orthogonalLoop=1;jettySize=auto;html=1;entryX=0;entryY=0.5;entryDx=0;entryDy=0;" edge="1" source="PXHfvhvfslaa210yV5xj-42" target="PXHfvhvfslaa210yV5xj-44" parent="1">
          <mxGeometry relative="1" as="geometry" />
        </mxCell>
        <mxCell id="PXHfvhvfslaa210yV5xj-39" style="edgeStyle=orthogonalEdgeStyle;rounded=0;orthogonalLoop=1;jettySize=auto;html=1;entryX=0;entryY=0.5;entryDx=0;entryDy=0;" edge="1" source="PXHfvhvfslaa210yV5xj-42" target="PXHfvhvfslaa210yV5xj-45" parent="1">
          <mxGeometry relative="1" as="geometry" />
        </mxCell>
        <mxCell id="PXHfvhvfslaa210yV5xj-40" style="edgeStyle=orthogonalEdgeStyle;rounded=0;orthogonalLoop=1;jettySize=auto;html=1;entryX=0;entryY=0.5;entryDx=0;entryDy=0;" edge="1" source="PXHfvhvfslaa210yV5xj-42" target="PXHfvhvfslaa210yV5xj-43" parent="1">
          <mxGeometry relative="1" as="geometry" />
        </mxCell>
        <mxCell id="PXHfvhvfslaa210yV5xj-41" style="edgeStyle=orthogonalEdgeStyle;rounded=0;orthogonalLoop=1;jettySize=auto;html=1;entryX=0;entryY=0.5;entryDx=0;entryDy=0;" edge="1" source="PXHfvhvfslaa210yV5xj-42" target="PXHfvhvfslaa210yV5xj-46" parent="1">
          <mxGeometry relative="1" as="geometry" />
        </mxCell>
        <mxCell id="PXHfvhvfslaa210yV5xj-42" value="&lt;div&gt;&lt;font face=&quot;Helvetica&quot; style=&quot;font-size: 14px;&quot;&gt;&lt;i&gt;fastapi_backend&lt;/i&gt;&lt;/font&gt;&lt;/div&gt;" style="rounded=0;whiteSpace=wrap;html=1;" vertex="1" parent="1">
          <mxGeometry x="108" y="333" width="118.5" height="40" as="geometry" />
        </mxCell>
        <mxCell id="PXHfvhvfslaa210yV5xj-43" value="&lt;font face=&quot;Helvetica&quot; style=&quot;font-size: 14px;&quot;&gt;fastapi&lt;/font&gt;" style="rounded=0;whiteSpace=wrap;html=1;fillColor=#CCCC00;" vertex="1" parent="1">
          <mxGeometry x="275.5" y="261" width="100" height="40" as="geometry" />
        </mxCell>
        <mxCell id="PXHfvhvfslaa210yV5xj-44" value="&lt;font face=&quot;Helvetica&quot; style=&quot;font-size: 14px;&quot;&gt;gTTS&lt;/font&gt;" style="rounded=0;whiteSpace=wrap;html=1;fillColor=#CCCC00;" vertex="1" parent="1">
          <mxGeometry x="275.5" y="309" width="100" height="40" as="geometry" />
        </mxCell>
        <mxCell id="PXHfvhvfslaa210yV5xj-45" value="&lt;font face=&quot;Helvetica&quot; style=&quot;font-size: 14px;&quot;&gt;backend&lt;/font&gt;" style="rounded=0;whiteSpace=wrap;html=1;fillColor=#CC6600;" vertex="1" parent="1">
          <mxGeometry x="275.5" y="357" width="100" height="40" as="geometry" />
        </mxCell>
        <mxCell id="PXHfvhvfslaa210yV5xj-46" value="&lt;font face=&quot;Helvetica&quot; style=&quot;font-size: 14px;&quot;&gt;llava_network&lt;/font&gt;" style="rounded=0;whiteSpace=wrap;html=1;fillColor=#00CCCC;" vertex="1" parent="1">
          <mxGeometry x="275.5" y="405" width="100" height="40" as="geometry" />
        </mxCell>
        <mxCell id="PXHfvhvfslaa210yV5xj-49" style="edgeStyle=orthogonalEdgeStyle;rounded=0;orthogonalLoop=1;jettySize=auto;html=1;entryX=0;entryY=0.5;entryDx=0;entryDy=0;" edge="1" source="PXHfvhvfslaa210yV5xj-52" target="PXHfvhvfslaa210yV5xj-55" parent="1">
          <mxGeometry relative="1" as="geometry" />
        </mxCell>
        <mxCell id="PXHfvhvfslaa210yV5xj-50" style="edgeStyle=orthogonalEdgeStyle;rounded=0;orthogonalLoop=1;jettySize=auto;html=1;entryX=0;entryY=0.5;entryDx=0;entryDy=0;" edge="1" source="PXHfvhvfslaa210yV5xj-52" target="PXHfvhvfslaa210yV5xj-53" parent="1">
          <mxGeometry relative="1" as="geometry" />
        </mxCell>
        <mxCell id="PXHfvhvfslaa210yV5xj-51" style="edgeStyle=orthogonalEdgeStyle;rounded=0;orthogonalLoop=1;jettySize=auto;html=1;entryX=0;entryY=0.5;entryDx=0;entryDy=0;" edge="1" source="PXHfvhvfslaa210yV5xj-52" target="PXHfvhvfslaa210yV5xj-56" parent="1">
          <mxGeometry relative="1" as="geometry" />
        </mxCell>
        <mxCell id="PXHfvhvfslaa210yV5xj-52" value="&lt;font face=&quot;Helvetica&quot; style=&quot;font-size: 14px;&quot;&gt;streamlit_app&lt;/font&gt;" style="rounded=0;whiteSpace=wrap;html=1;" vertex="1" parent="1">
          <mxGeometry x="457" y="333" width="100.5" height="40" as="geometry" />
        </mxCell>
        <mxCell id="PXHfvhvfslaa210yV5xj-53" value="&lt;font face=&quot;Helvetica&quot; style=&quot;font-size: 14px;&quot;&gt;streamlit&lt;/font&gt;" style="rounded=0;whiteSpace=wrap;html=1;fillColor=#CCCC00;" vertex="1" parent="1">
          <mxGeometry x="615.5" y="261" width="100" height="40" as="geometry" />
        </mxCell>
        <mxCell id="PXHfvhvfslaa210yV5xj-55" value="&lt;font face=&quot;Helvetica&quot; style=&quot;font-size: 14px;&quot;&gt;interface&lt;/font&gt;" style="rounded=0;whiteSpace=wrap;html=1;fillColor=#CC6600;" vertex="1" parent="1">
          <mxGeometry x="615.5" y="357" width="100" height="40" as="geometry" />
        </mxCell>
        <mxCell id="PXHfvhvfslaa210yV5xj-56" value="&lt;font face=&quot;Helvetica&quot; style=&quot;font-size: 14px;&quot;&gt;llava_network&lt;/font&gt;" style="rounded=0;whiteSpace=wrap;html=1;fillColor=#00CCCC;" vertex="1" parent="1">
          <mxGeometry x="615.5" y="405" width="100" height="40" as="geometry" />
        </mxCell>
        <mxCell id="PXHfvhvfslaa210yV5xj-74" value="&lt;font style=&quot;font-size: 11px;&quot;&gt;http://llava_model:11434/api/generate&lt;/font&gt;" style="rounded=0;whiteSpace=wrap;html=1;fillColor=#00CC00;" vertex="1" parent="1">
          <mxGeometry x="-67" y="525" width="196" height="40" as="geometry" />
        </mxCell>
        <mxCell id="PXHfvhvfslaa210yV5xj-95" style="edgeStyle=orthogonalEdgeStyle;rounded=0;orthogonalLoop=1;jettySize=auto;html=1;entryX=0;entryY=0.5;entryDx=0;entryDy=0;" edge="1" parent="1">
          <mxGeometry relative="1" as="geometry">
            <mxPoint x="170.5" y="373" as="sourcePoint" />
            <mxPoint x="278.5" y="545" as="targetPoint" />
            <Array as="points">
              <mxPoint x="170.5" y="545" />
            </Array>
          </mxGeometry>
        </mxCell>
        <mxCell id="PXHfvhvfslaa210yV5xj-96" style="edgeStyle=orthogonalEdgeStyle;rounded=0;orthogonalLoop=1;jettySize=auto;html=1;entryX=0;entryY=0.5;entryDx=0;entryDy=0;" edge="1" parent="1">
          <mxGeometry relative="1" as="geometry">
            <mxPoint x="170.5" y="544" as="sourcePoint" />
            <mxPoint x="278.5" y="593" as="targetPoint" />
            <Array as="points">
              <mxPoint x="170.5" y="593" />
            </Array>
          </mxGeometry>
        </mxCell>
        <mxCell id="PXHfvhvfslaa210yV5xj-100" value="&lt;font style=&quot;font-size: 11px;&quot;&gt;http://fastapi_backend:8000/generate&lt;/font&gt;" style="rounded=0;whiteSpace=wrap;html=1;fillColor=#00CC00;" vertex="1" parent="1">
          <mxGeometry x="279" y="525" width="196" height="40" as="geometry" />
        </mxCell>
        <mxCell id="PXHfvhvfslaa210yV5xj-101" value="http://fastapi_backend:8000/tts" style="rounded=0;whiteSpace=wrap;html=1;fillColor=#00CC00;" vertex="1" parent="1">
          <mxGeometry x="279" y="573" width="196" height="40" as="geometry" />
        </mxCell>
        <mxCell id="PXHfvhvfslaa210yV5xj-108" value="" style="group" vertex="1" connectable="0" parent="1">
          <mxGeometry x="830" y="-142" width="178" height="383" as="geometry" />
        </mxCell>
        <mxCell id="PXHfvhvfslaa210yV5xj-106" value="" style="rounded=0;whiteSpace=wrap;html=1;fillColor=#E6E6E6;" vertex="1" parent="PXHfvhvfslaa210yV5xj-108">
          <mxGeometry width="178" height="383" as="geometry" />
        </mxCell>
        <mxCell id="PXHfvhvfslaa210yV5xj-59" value="&lt;font face=&quot;Helvetica&quot; style=&quot;font-size: 14px;&quot;&gt;&lt;b&gt;&lt;i&gt;features&lt;/i&gt;&lt;/b&gt;&lt;/font&gt;" style="rounded=0;whiteSpace=wrap;html=1;fillColor=#CCCC00;" vertex="1" parent="PXHfvhvfslaa210yV5xj-108">
          <mxGeometry x="14.833333333333334" y="129.3918918918919" width="148.33333333333334" height="51.75675675675675" as="geometry" />
        </mxCell>
        <mxCell id="PXHfvhvfslaa210yV5xj-60" value="&lt;font face=&quot;Helvetica&quot; style=&quot;font-size: 14px;&quot;&gt;&lt;b&gt;&lt;i&gt;volumes&lt;/i&gt;&lt;/b&gt;&lt;/font&gt;" style="rounded=0;whiteSpace=wrap;html=1;fillColor=#CC6600;" vertex="1" parent="PXHfvhvfslaa210yV5xj-108">
          <mxGeometry x="14.833333333333334" y="191.5" width="148.33333333333334" height="51.75675675675675" as="geometry" />
        </mxCell>
        <mxCell id="PXHfvhvfslaa210yV5xj-61" value="&lt;font face=&quot;Helvetica&quot; style=&quot;font-size: 14px;&quot;&gt;&lt;i&gt;&lt;b&gt;networks&lt;/b&gt;&lt;/i&gt;&lt;/font&gt;" style="rounded=0;whiteSpace=wrap;html=1;fillColor=#00CCCC;" vertex="1" parent="PXHfvhvfslaa210yV5xj-108">
          <mxGeometry x="14.833333333333334" y="253.60810810810813" width="148.33333333333334" height="51.75675675675675" as="geometry" />
        </mxCell>
        <mxCell id="PXHfvhvfslaa210yV5xj-65" value="&lt;div style=&quot;background-color:#1e1f22;color:#bcbec4&quot;&gt;&lt;pre style=&quot;font-family: &amp;quot;JetBrains Mono&amp;quot;, monospace;&quot;&gt;&lt;span style=&quot;color: rgb(106, 171, 115);&quot;&gt;&lt;font style=&quot;font-size: 18px;&quot;&gt;ports&lt;/font&gt;&lt;/span&gt;&lt;/pre&gt;&lt;/div&gt;" style="rounded=1;whiteSpace=wrap;html=1;fillColor=#FFFFCC;" vertex="1" parent="PXHfvhvfslaa210yV5xj-108">
          <mxGeometry x="14.833333333333334" y="51.75675675675675" width="148.33333333333334" height="67.28378378378379" as="geometry" />
        </mxCell>
        <mxCell id="PXHfvhvfslaa210yV5xj-66" value="&lt;b&gt;&lt;font style=&quot;font-size: 18px;&quot;&gt;Légende :&lt;/font&gt;&lt;/b&gt;" style="text;html=1;align=center;verticalAlign=middle;whiteSpace=wrap;rounded=0;" vertex="1" parent="PXHfvhvfslaa210yV5xj-108">
          <mxGeometry x="14.833333333333334" y="2.5878378378378377" width="132.01666666666668" height="38.817567567567565" as="geometry" />
        </mxCell>
        <mxCell id="PXHfvhvfslaa210yV5xj-104" value="&lt;font face=&quot;Helvetica&quot; style=&quot;font-size: 14px;&quot;&gt;&lt;i&gt;&lt;b&gt;api routes&lt;/b&gt;&lt;/i&gt;&lt;/font&gt;" style="rounded=0;whiteSpace=wrap;html=1;fillColor=#00CC00;" vertex="1" parent="PXHfvhvfslaa210yV5xj-108">
          <mxGeometry x="14.833333333333334" y="315.7162162162162" width="148.33333333333334" height="51.75675675675675" as="geometry" />
        </mxCell>
      </root>
    </mxGraphModel>
  </diagram>
</mxfile>
